# This file uses centimeters as units for non-parametric coordinates.

v 0.000000 9.950132 -0.000000
v 6.554034 16.352311 -0.000000
v -6.554034 16.352311 -0.000000
v 0.000000 5.000000 -1.218361
v 0.000000 0.366681 -0.000000
v 3.862352 6.883008 0.000000
v -3.862352 6.883008 -0.000000
v 6.177570 11.227229 -0.000000
v -6.177570 11.227229 -0.000000
v -5.898953 14.882924 -0.539382
v -6.241104 15.718993 -0.169750
v -0.000000 9.000000 -0.866898
v 0.000000 8.493172 -1.218361
v -3.327366 7.138420 -0.571911
v -3.556314 7.000000 -0.200180
v -0.000000 1.501924 -0.604875
v 0.000000 1.000000 -0.224551
v -5.416572 10.713600 -0.534290
v -5.688083 11.000000 -0.111339
v 6.241104 15.718993 -0.169750
v 5.898953 14.882924 -0.539382
v 5.404162 10.749561 -0.540569
v 5.688083 11.000000 -0.128230
v 3.327334 7.138440 -0.571922
v 3.556314 7.000000 -0.200137
v -2.693165 9.582815 -0.878235
v -5.396410 12.438766 -0.536836
v -2.688124 10.294746 -0.878872
v 0.000000 6.746586 -1.218361
v -2.708286 7.856800 -0.876325
v 2.685772 9.585961 -0.880347
v 2.688124 10.294746 -0.878872
v 5.390205 12.456746 -0.539976
v 2.702081 7.874780 -0.879465
v 2.351858 6.244108 -0.738101
v 4.573308 8.944000 -0.556245
v 1.871226 4.320182 -0.588398
v 0.000000 3.250962 -0.911618
v -2.352175 6.229910 -0.736536
v -1.871245 4.320172 -0.588393
v -4.579531 8.926010 -0.553101
vt 0.087182 0.556494
vt 0.058024 0.296743
vt 0.085991 0.436251
vt 0.063649 0.565805
vt 0.084801 0.316008
vt 0.050976 0.565805
vt 0.050976 0.296743
vt 0.065192 0.969397
vt 0.061722 0.027681
vt 0.050976 0.969397
vt 0.050976 0.027681
vt 0.088226 0.746065
vt 0.084962 0.199964
vt 0.089269 0.935636
vt 0.085123 0.083920
vt 0.175359 0.433106
vt 0.174367 0.554558
vt 0.147270 0.692855
vt 0.173374 0.676010
vt 0.151822 0.423794
vt 0.149898 0.961917
vt 0.153368 0.020201
vt 0.139152 0.423794
vt 0.139152 0.692855
vt 0.173337 0.790844
vt 0.139152 0.961917
vt 0.139152 0.020201
vt 0.176402 0.243534
vt 0.173299 0.905679
vt 0.177445 0.053963
vt 0.174916 0.010116
vt 0.542268 0.421834
vt 0.195055 0.067486
vt 0.368661 0.262050
vt 0.542268 0.456613
vt 0.193753 0.185867
vt 0.368336 0.381842
vt 0.715874 0.262050
vt 0.542268 0.576463
vt 0.367359 0.500280
vt 0.192451 0.304247
vt 0.889480 0.067486
vt 0.715722 0.381626
vt 0.542268 0.696313
vt 0.246509 0.426911
vt 0.390358 0.611917
vt 0.890382 0.184633
vt 0.909620 0.010116
vt 0.716776 0.499047
vt 0.542268 0.816332
vt 0.421418 0.742963
vt 0.300568 0.549576
vt 0.891283 0.301780
vt 0.694157 0.610943
vt 0.542268 0.936351
vt 0.837624 0.425677
vt 0.663117 0.742962
vt 0.783966 0.549574
vt 0.963749 0.541953
vt 0.882027 0.541953
vt 0.546402 0.959300
vt 0.963749 0.959300
vt 0.882027 0.541953
vt 0.963749 0.541953
vn 0.340264 0.454047 -0.823445
vn -0.000000 0.537926 -0.842992
vn 0.150466 0.348187 -0.925271
vn -0.046295 0.046889 -0.997827
vn -0.000588 0.062247 -0.998061
vn -0.564996 -0.156539 -0.810108
vn -0.256866 -0.045638 -0.965369
vn -0.179750 -0.014866 -0.983600
vn -0.335988 0.454671 -0.824855
vn -0.154146 0.350542 -0.923775
vn 0.044955 0.047834 -0.997843
vn -0.550041 -0.309532 -0.775657
vn -0.566503 -0.318854 -0.759873
vn -0.400845 -0.230437 -0.886691
vn -0.000022 -0.341801 -0.939773
vn -0.424349 -0.241819 -0.872612
vn 0.000296 -0.349455 -0.936953
vn 0.552511 -0.311548 -0.773091
vn 0.561550 -0.316186 -0.764649
vn 0.423545 -0.241229 -0.873166
vn 0.562524 -0.159325 -0.811284
vn 0.253694 -0.043479 -0.966307
vn 0.178325 -0.013933 -0.983873
vn 0.393470 -0.223761 -0.891691
vn -0.170526 -0.047491 -0.984208
vn -0.127375 -0.002668 -0.991851
vn -0.436434 -0.244239 -0.865952
vn -0.000025 -0.317231 -0.948348
vn -0.322906 0.443791 -0.835932
vn -0.000000 0.628281 -0.777987
vn 0.328081 0.443019 -0.834324
vn -0.000848 0.000181 -1.000000
vn 0.126085 -0.001846 -0.992018
vn 0.170210 -0.047532 -0.984261
vn 0.279600 -0.156675 -0.947247
vn 0.000414 -0.157843 -0.987464
vn -0.279905 -0.157205 -0.947069
vn 0.442850 -0.248356 -0.861512
vn 0.389214 -0.077783 -0.917858
vn -0.372113 -0.074849 -0.925165
vn 0.000054 -0.114965 -0.993370
g MiniMap_Arrow
f 11/31/1 12/32/2 10/33/3
f 10/33/3 12/32/2 28/34/4
f 12/32/2 13/35/5 28/34/4
f 19/2/6 11/9/1 18/5/7
f 18/5/7 11/9/1 27/13/8
f 11/9/1 10/15/3 27/13/8
f 20/48/9 21/42/10 12/32/2
f 21/42/10 32/38/11 12/32/2
f 13/35/5 12/32/2 32/38/11
f 15/4/12 19/2/6 14/1/13
f 14/1/13 19/2/6 41/3/14
f 19/2/6 18/5/7 41/3/14
f 15/4/12 14/1/13 17/8/15
f 14/1/13 40/12/16 17/8/15
f 40/12/16 16/14/17 17/8/15
f 25/20/18 17/22/15 24/16/19
f 24/16/19 17/22/15 37/28/20
f 17/22/15 16/30/17 37/28/20
f 23/18/21 22/19/22 20/21/9
f 22/19/22 33/25/23 20/21/9
f 21/29/10 20/21/9 33/25/23
f 25/20/18 24/16/19 23/18/21
f 24/16/19 36/17/24 23/18/21
f 22/19/22 23/18/21 36/17/24
f 30/40/25 18/41/7 27/36/8 26/37/26
f 7/6/27 15/4/12 17/8/15 5/10/28
f 2/59/29 20/60/9 12/61/2 1/62/30
f 12/61/2 11/63/1 3/64/31 1/62/30
f 29/39/32 13/35/5 32/38/11 31/43/33
f 34/49/34 22/53/22 36/56/24 35/54/35
f 38/50/36 16/55/17 40/51/16 39/46/37
f 17/22/15 25/20/18 6/23/38 5/27/28
f 6/23/38 25/20/18 23/18/21 8/24/39
f 23/18/21 20/21/9 2/26/29 8/24/39
f 3/11/31 11/9/1 19/2/6 9/7/40
f 19/2/6 15/4/12 7/6/27 9/7/40
f 27/36/8 10/33/3 28/34/4 26/37/26
f 28/34/4 13/35/5 29/39/32 26/37/26
f 29/39/32 4/44/41 30/40/25 26/37/26
f 32/38/11 21/42/10 33/47/23 31/43/33
f 33/47/23 22/53/22 34/49/34 31/43/33
f 34/49/34 4/44/41 29/39/32 31/43/33
f 36/56/24 24/58/19 37/57/20 35/54/35
f 37/57/20 16/55/17 38/50/36 35/54/35
f 38/50/36 4/44/41 34/49/34 35/54/35
f 40/51/16 14/52/13 41/45/14 39/46/37
f 41/45/14 18/41/7 30/40/25 39/46/37
f 30/40/25 4/44/41 38/50/36 39/46/37
