# This file uses centimeters as units for non-parametric coordinates.

v 8.723923 -0.102123 9.933611
v -8.723924 -0.102123 9.933611
v 6.205631 1.970529 7.876717
v 5.627304 2.208771 7.791298
v 6.205631 11.656929 -7.197153
v 5.664925 12.441982 -7.384047
v -5.627303 2.208771 7.791298
v -6.205631 1.970529 7.876717
v -6.205631 11.656929 -7.197153
v -5.664925 12.441982 -7.384047
v 5.635370 1.956296 -13.119622
v 8.723923 -0.102123 -13.501485
v -8.723924 -0.102123 -13.501485
v -5.635370 1.956296 -13.119622
v 2.883166 8.925133 -5.531687
v 4.927777 2.226933 5.568471
v -2.883166 8.925133 -5.531687
v -4.927776 2.226933 5.568471
v 0.000000 10.776791 -5.891210
v -3.801959 10.683558 -5.873107
v 0.000000 8.925133 -5.531687
v 3.801959 10.683558 -5.873107
v 0.000000 7.370890 -10.428794
v 0.000000 1.956296 -13.119622
v -5.650147 7.199140 -10.251834
v -2.832462 12.826466 -8.242806
v 2.832462 12.826466 -8.242806
v 5.650147 7.199140 -10.251834
v 3.130734 12.469122 -5.234276
v 0.000000 12.540098 -5.240456
v 3.354195 13.807747 -5.750093
v 1.677097 14.100439 -6.043262
v -1.677097 14.100439 -6.043262
v -3.354194 13.807747 -5.750093
v -3.130734 12.469122 -5.234276
v -6.853268 1.195066 9.861062
v 6.853267 1.195066 9.861062
v 6.205631 1.909808 9.078865
v -6.205631 1.909808 9.078865
v 2.883166 7.221603 -6.625607
v 4.927777 0.093643 4.474551
v 0.000000 7.221603 -6.625607
v -2.883166 7.221603 -6.625607
v -4.927776 0.093643 4.474551
v 7.581483 3.402674 -2.433772
v 8.723923 -0.102123 -1.783937
v 7.464777 5.777402 -10.186251
v 6.205631 6.715631 0.317296
v 7.464777 0.836106 8.882679
v -7.581484 3.402674 -2.433771
v -6.205631 6.715631 0.317296
v -7.464777 5.777402 -10.186251
v -8.723924 -0.102123 -1.783937
v -7.464777 0.836106 8.882679
v -7.144950 -0.059307 12.636967
v 7.144949 -0.059307 12.636967
v 7.144949 0.328180 11.528040
v -7.144950 0.328180 11.528040
v 9.656466 -0.102123 -1.783937
v 10.667955 1.698911 -3.672877
v 10.953616 1.621790 -10.932446
v 9.787189 -0.102123 -13.501485
v 10.149110 7.822224 -9.650584
v 8.344526 8.872496 -10.349319
v 10.459709 6.226916 -3.747940
v 8.569586 6.497767 -2.433772
v -10.953617 1.621790 -10.932446
v -9.827739 -0.102123 -13.501485
v -8.344528 8.872496 -10.349319
v -10.149111 7.822224 -9.650584
v -10.667957 1.698911 -3.672877
v -9.656467 -0.102123 -1.783937
v -10.459711 6.226915 -3.747939
v -8.547245 6.497767 -2.433771
v 10.953616 1.621794 -10.932446
v 10.667955 1.698913 -3.672878
v 12.008125 4.177106 -7.784330
v 10.459709 2.581797 -3.747940
v -10.953617 1.621794 -10.932446
v -12.008125 4.177106 -7.784330
v -10.667957 1.698912 -3.672878
v -10.459711 2.581797 -3.747939
vt 0.196630 0.474073
vt 0.203059 0.432611
vt 0.575802 0.437194
vt 0.581195 0.478674
vt 0.222132 0.074871
vt 0.564671 0.078871
vt 0.740557 0.881562
vt 0.714601 0.791477
vt 0.739986 0.775540
vt 0.647181 0.908742
vt 0.620122 0.815780
vt 0.701528 0.712263
vt 0.802021 0.902007
vt 0.512915 0.986158
vt 0.553804 0.935921
vt 0.527359 0.845979
vt 0.639327 0.708520
vt 0.689109 0.701325
vt 0.761025 0.764689
vt 0.825023 0.897237
vt 0.497432 0.846168
vt 0.500486 0.756229
vt 0.546352 0.735582
vt 0.838772 0.851644
vt 0.779281 0.758277
vt 0.495877 0.772123
vt 0.547111 0.700542
vt 0.619881 0.679361
vt 0.473778 0.848278
vt 0.454873 0.963385
vt 0.454965 0.852676
vt 0.309633 0.012836
vt 0.350946 0.006165
vt 0.314916 0.044661
vt 0.391961 0.043497
vt 0.296231 0.071885
vt 0.433478 0.006724
vt 0.391677 0.085370
vt 0.263752 0.383809
vt 0.468983 0.045704
vt 0.391379 0.129341
vt 0.317435 0.112426
vt 0.486024 0.077068
vt 0.474696 0.013954
vt 0.391105 0.169794
vt 0.340400 0.141269
vt 0.464489 0.117431
vt 0.441228 0.146218
vt 0.511674 0.370120
vt 0.515944 0.387728
vt 0.268786 0.365162
vt 0.785509 0.610342
vt 0.812351 0.547372
vt 0.828985 0.546204
vt 0.822076 0.652035
vt 0.849205 0.575941
vt 0.855697 0.679062
vt 0.313904 0.692285
vt 0.370497 0.730963
vt 0.362098 0.785639
vt 0.299238 0.700220
vt 0.298123 0.736164
vt 0.347971 0.826785
vt 0.921171 0.745569
vt 0.922164 0.747091
vt 0.908869 0.738660
vt 0.328419 0.918096
vt 0.335091 0.905665
vt 0.328398 0.919915
vt 0.601292 0.671015
vt 0.939084 0.247460
vt 0.214677 0.602233
vt 0.560135 0.606325
vt 0.796268 0.158591
vt 0.492032 0.993319
vt 0.939978 0.071173
vt 0.330843 0.922546
vt 0.948265 0.071215
vt 0.953926 0.737474
vt 0.921512 0.750623
vt 0.654890 0.666031
vt 0.510416 0.708084
vt 0.218068 0.574985
vt 0.557391 0.579004
vt 0.151470 0.544382
vt 0.225480 0.534052
vt 0.550951 0.537908
vt 0.624719 0.549962
vt 0.171722 0.515430
vt 0.241086 0.514989
vt 0.535800 0.518480
vt 0.605140 0.520544
vt 0.176765 0.275456
vt 0.075215 0.250942
vt 0.211032 0.062260
vt 0.003699 0.301546
vt 0.049909 0.059455
vt 0.605516 0.280541
vt 0.576071 0.066626
vt 0.707593 0.258326
vt 0.737217 0.067460
vt 0.777949 0.310532
vt 0.843903 0.845650
vt 0.843663 0.774662
vt 0.409433 0.901052
vt 0.447326 0.961081
vt 0.803983 0.070484
vt 0.939531 0.159317
vt 0.803536 0.158627
vt 0.172000 0.665930
vt 0.296437 0.928845
vt 0.795380 0.070440
vt 0.946799 0.159354
vt 0.803089 0.246771
vn 0.836071 0.496649 0.233078
vn 0.148438 0.632801 0.759953
vn -0.148438 0.632801 0.759953
vn -0.836071 0.496649 0.233078
vn 0.701798 0.595270 0.391323
vn 0.930723 0.333500 0.150107
vn 0.958910 0.276000 0.065698
vn -0.306553 0.362003 -0.880329
vn 0.051984 0.368444 -0.928195
vn 0.787204 0.427670 -0.444307
vn 0.124294 0.442857 -0.887935
vn 0.180006 0.465414 -0.866595
vn -0.701798 0.595270 0.391323
vn -0.930723 0.333500 0.150107
vn -0.958910 0.276000 0.065698
vn 0.302790 0.361836 -0.881699
vn -0.784385 0.428246 -0.448716
vn -0.069429 0.429172 -0.900550
vn -0.124294 0.442857 -0.887935
vn -0.180006 0.465414 -0.866595
vn 0.000000 0.182401 -0.983224
vn 0.000000 0.182400 -0.983224
vn 0.000000 0.423285 -0.905996
vn 0.868505 0.492128 0.059236
vn 0.868505 0.492128 0.059236
vn 0.868505 0.492128 0.059236
vn 0.868505 0.492128 0.059236
vn 0.000000 0.841449 0.540336
vn 0.000000 0.841449 0.540336
vn 0.000000 0.841449 0.540336
vn 0.000000 0.841449 0.540336
vn 0.000000 0.841449 0.540336
vn -0.875641 0.448508 0.179146
vn -0.875641 0.448508 0.179146
vn 0.000000 -1.000000 0.000000
vn 0.000000 -1.000000 0.000000
vn 0.000000 -1.000000 0.000000
vn 0.000000 -1.000000 0.000000
vn 0.000000 -1.000000 0.000000
vn 0.000000 -1.000000 0.000000
vn 0.020936 0.462325 -0.886463
vn 0.000000 0.738222 0.674558
vn 0.000000 0.738222 0.674558
vn 0.000000 0.738222 0.674558
vn 0.000000 0.738222 0.674558
vn -0.867696 0.413139 0.276441
vn -0.317168 0.753349 0.576081
vn -0.842983 0.442981 0.305202
vn -0.373578 0.728009 0.574841
vn -0.762493 0.482173 0.431408
vn -0.096493 0.371869 0.923256
vn -0.006496 0.443986 0.896010
vn -0.022867 0.427735 0.903615
vn 0.000000 0.453849 0.891079
vn 0.006496 0.443986 0.896010
vn 0.022867 0.427735 0.903615
vn 0.096493 0.371869 0.923257
vn 0.867696 0.413138 0.276441
vn 0.842983 0.442981 0.305202
vn 0.317168 0.753349 0.576081
vn 0.373578 0.728009 0.574840
vn 0.762493 0.482173 0.431408
vn 0.000000 0.999967 0.008171
vn 0.000000 0.999967 0.008171
vn 0.000000 0.999967 0.008171
vn 0.000000 0.999967 0.008171
vn 0.000000 0.190603 0.981667
vn 0.000000 0.190603 0.981667
vn 0.000000 0.190603 0.981667
vn 0.000000 0.190603 0.981667
vn 0.000000 0.190603 0.981667
vn 0.000000 0.190603 0.981667
vn 0.000000 0.190603 0.981667
vn 0.000000 0.190603 0.981667
vn -0.020936 0.462325 -0.886463
vn -0.106445 0.538415 -0.835930
vn -0.136797 0.393113 -0.909257
vn 0.106445 0.538415 -0.835930
vn 0.000000 0.371942 -0.928256
vn 0.136798 0.393113 -0.909257
vn 0.000000 -0.343437 0.939176
vn -0.011424 -0.343415 0.939114
vn -0.011424 -0.343415 0.939114
vn 0.000000 -0.343437 0.939176
vn 0.646018 0.062634 0.760748
vn 0.646018 0.062634 0.760748
vn 0.646018 0.062634 0.760748
vn 0.646018 0.062634 0.760748
vn 0.057183 0.875841 -0.479201
vn 0.234875 0.886709 -0.398221
vn -0.057183 0.875841 -0.479201
vn -0.234875 0.886709 -0.398222
vn -0.646018 0.062634 0.760748
vn -0.646018 0.062634 0.760748
vn -0.646018 0.062634 0.760748
vn -0.646018 0.062634 0.760748
vn 0.011424 -0.343415 0.939114
vn 0.011424 -0.343415 0.939114
vn 0.000000 0.944027 0.329867
vn 0.000000 0.944027 0.329867
vn 0.000000 0.944027 0.329867
vn 0.000000 0.944027 0.329867
vn 0.567629 0.821553 0.053360
vn 0.604211 0.793992 0.067124
vn 0.612980 0.784322 0.095365
vn 0.651820 0.757408 0.038257
vn 0.653408 0.754050 0.066829
vn 0.000000 0.998727 0.050446
vn 0.000000 0.998727 0.050446
vn 0.000000 0.998727 0.050446
vn 0.000000 0.998727 0.050446
vn -0.567629 0.821553 0.053359
vn -0.612980 0.784323 0.095364
vn -0.604211 0.793992 0.067123
vn -0.651820 0.757408 0.038257
vn -0.653408 0.754050 0.066828
vn -0.987979 -0.076576 0.134291
vn -0.987979 -0.076576 0.134291
vn -0.987979 -0.076576 0.134291
vn -0.987979 -0.076576 0.134291
vn 0.000000 -0.540336 0.841449
vn 0.000000 -0.540336 0.841449
vn 0.000000 -0.540336 0.841449
vn 0.000000 -0.540336 0.841449
vn 0.000000 -0.540336 0.841449
vn 0.000000 -0.540336 0.841449
vn 0.987979 -0.076576 0.134291
vn 0.987979 -0.076576 0.134291
vn 0.987979 -0.076576 0.134291
vn 0.987979 -0.076576 0.134291
vn 0.000000 0.456292 -0.889830
vn 0.000000 0.456292 -0.889830
vn 0.000000 0.456292 -0.889830
vn 0.000000 0.456292 -0.889830
vn 0.971158 0.217832 0.096963
vn 0.875641 0.448508 0.179146
vn 0.875641 0.448508 0.179146
vn -0.971158 0.217832 0.096963
vn -0.868505 0.492128 0.059236
vn -0.868505 0.492128 0.059236
vn -0.868505 0.492128 0.059236
vn -0.868505 0.492128 0.059236
vn 0.000000 -0.999875 0.015836
vn 0.000000 -0.999875 0.015836
vn 0.000000 -0.999875 0.015836
vn 0.000000 -0.999875 0.015836
vn 0.524104 0.795412 0.304359
vn 0.524104 0.795412 0.304359
vn 0.524104 0.795412 0.304359
vn 0.524104 0.795412 0.304359
vn 0.000000 0.887204 0.461377
vn 0.000000 0.887204 0.461377
vn 0.000000 0.887204 0.461377
vn 0.000000 0.887204 0.461377
vn -0.524104 0.795412 0.304359
vn -0.524104 0.795412 0.304359
vn -0.524104 0.795412 0.304359
vn -0.524104 0.795412 0.304359
vn 0.342016 0.124910 0.931355
vn 0.704026 0.127450 0.698644
vn 0.572570 0.655885 0.491912
vn -0.584762 0.632767 0.507601
vn 0.848737 -0.528407 0.020770
vn 0.453530 -0.891172 0.011099
vn 0.412132 -0.911068 0.010085
vn 0.848737 -0.528407 0.020770
vn 0.675165 0.297247 -0.675127
vn 0.061552 0.349250 -0.935006
vn -0.419458 0.855527 -0.303527
vn 0.650024 0.689622 -0.319202
vn -0.852923 -0.521545 0.022656
vn -0.408157 -0.912847 0.010842
vn -0.449534 -0.893184 0.011941
vn -0.852923 -0.521545 0.022656
vn -0.060425 0.350277 -0.934695
vn -0.679197 0.298333 -0.670588
vn -0.650370 0.692347 -0.312531
vn 0.420070 0.855554 -0.302603
vn -0.570030 0.656611 0.493890
vn 0.585866 0.632302 0.506908
vn -0.701036 0.128690 0.701418
vn -0.342953 0.125400 0.930945
vn 0.938510 -0.327820 0.108323
vn 0.938510 -0.327820 0.108323
vn 0.938510 -0.327820 0.108323
vn 0.938510 -0.327820 0.108323
vn -0.938510 -0.327819 0.108322
vn -0.938510 -0.327819 0.108322
vn -0.938510 -0.327819 0.108322
vn -0.938510 -0.327819 0.108322
vn -0.950910 0.289792 0.108587
vn -0.950910 0.289792 0.108587
vn -0.150490 0.093386 0.984191
vn -0.150490 0.093386 0.984191
vn 0.151378 0.092844 0.984106
vn 0.151378 0.092844 0.984106
vn 0.952116 0.286659 0.106306
vn 0.952116 0.286660 0.106306
vn 0.991491 0.124109 0.039278
vn 0.991491 0.124109 0.039278
vn 0.991491 0.124109 0.039278
vn 0.991491 0.124109 0.039278
vn 0.864808 0.206800 -0.457539
vn 0.864808 0.206800 -0.457539
vn 0.864808 0.206800 -0.457539
vn 0.864808 0.206800 -0.457539
vn 0.933207 0.291691 0.209861
vn 0.933207 0.291691 0.209861
vn 0.933207 0.291691 0.209861
vn 0.933207 0.291691 0.209861
vn 0.339094 0.000000 -0.940753
vn 0.339094 0.000000 -0.940753
vn 0.339094 0.000000 -0.940753
vn 0.339094 0.000000 -0.940752
vn -0.864808 0.206799 -0.457538
vn -0.864808 0.206799 -0.457538
vn -0.864808 0.206799 -0.457538
vn -0.864808 0.206799 -0.457538
vn -0.999162 0.000000 0.040938
vn -0.999162 0.000000 0.040938
vn -0.999162 0.000000 0.040938
vn -0.999162 0.000000 0.040938
vn -0.339094 0.000000 -0.940753
vn -0.339094 0.000000 -0.940753
vn -0.339094 0.000000 -0.940752
vn -0.339094 0.000000 -0.940752
vn -0.933207 0.291691 0.209861
vn -0.933207 0.291691 0.209861
vn -0.933207 0.291691 0.209861
vn -0.933207 0.291691 0.209861
f 3/1/1 4/2/2 7/3/3 8/4/4
f 4/2/2 3/1/1 6/5/5
f 3/1/1 48/93/6 6/5/5
f 48/93/6 5/95/7 6/5/5
f 12/13/8 11/7/9 47/9/10
f 11/7/9 28/8/11 47/9/10
f 47/9/10 28/8/11 5/12/7
f 6/18/12 5/12/7 28/8/11
f 7/3/3 10/6/13 8/4/4
f 8/4/4 10/6/13 51/98/14
f 10/6/13 9/99/15 51/98/14
f 13/14/16 52/21/17 14/15/18
f 14/15/18 52/21/17 25/16/19
f 52/21/17 9/26/15 25/16/19
f 9/26/15 10/22/20 25/16/19
f 12/13/21 13/14/22 11/7/9
f 11/7/9 13/14/22 24/10/23
f 13/14/22 14/15/18 24/10/23
f 49/89/24 1/85/25 46/96/26 45/94/27
f 41/51/28 40/46/29 44/49/30
f 40/46/29 42/45/31 44/49/30
f 42/45/31 43/48/32 44/49/30
f 54/92/33 8/4/4 51/98/14 50/100/34
f 2/114/35 53/109/36 1/71/37
f 1/71/37 53/109/36 46/108/38
f 53/109/36 13/107/39 46/108/38
f 13/107/39 12/76/40 46/108/38
f 28/8/11 11/7/9 24/10/23 23/11/41
f 36/87/42 37/86/43 38/90/44 39/91/45
f 4/2/46 6/5/47 16/39/48
f 6/5/47 22/36/49 16/39/48
f 22/36/49 15/42/50 16/39/48
f 31/32/51 32/33/52 29/34/53
f 29/34/53 32/33/52 30/35/54
f 32/33/52 33/37/55 30/35/54
f 30/35/54 33/37/55 35/40/56
f 33/37/55 34/44/57 35/40/56
f 7/3/58 18/50/59 10/6/60
f 10/6/60 18/50/59 20/43/61
f 18/50/59 17/47/62 20/43/61
f 7/3/63 4/2/64 16/39/65 18/50/66
f 20/43/67 17/47/68 21/41/69 19/38/70
f 21/41/71 15/42/72 22/36/73 19/38/74
f 24/10/23 14/15/18 25/16/19 23/11/75
f 25/16/19 10/22/20 26/23/76 23/11/77
f 26/23/76 27/17/78 23/11/79
f 27/17/78 6/18/12 28/8/11 23/11/80
f 19/38/81 22/36/82 29/34/83 30/35/84
f 22/36/85 6/5/86 31/32/87 29/34/88
f 6/18/12 27/17/78 32/28/89 31/81/90
f 27/17/78 26/23/76 33/27/91 32/28/89
f 26/23/76 10/22/20 34/82/92 33/27/91
f 10/6/93 20/43/94 35/40/95 34/44/96
f 20/43/97 19/38/81 30/35/84 35/40/98
f 55/73/99 56/72/100 57/83/101 58/84/102
f 1/85/103 49/89/104 37/86/105
f 3/1/106 38/90/107 49/89/104
f 49/89/104 38/90/107 37/86/105
f 3/1/108 8/4/109 39/91/110 38/90/111
f 2/88/112 36/87/113 54/92/114
f 8/4/115 54/92/114 39/91/116
f 54/92/114 36/87/113 39/91/116
f 16/39/117 15/42/118 40/46/119 41/51/120
f 15/42/121 21/41/122 42/45/123 40/46/124
f 21/41/122 17/47/125 43/48/126 42/45/123
f 17/47/127 18/50/128 44/49/129 43/48/130
f 18/50/131 16/39/132 41/51/133 44/49/134
f 47/97/10 5/95/7 48/93/6 45/94/135
f 48/93/6 3/1/1 49/89/136 45/94/137
f 51/98/14 9/99/15 52/101/17 50/100/138
f 53/102/139 2/88/140 54/92/141 50/100/142
f 2/70/143 1/110/144 56/72/145 55/73/146
f 1/85/147 37/86/148 57/83/149 56/72/150
f 37/86/151 36/87/152 58/84/153 57/83/154
f 36/87/155 2/88/156 55/73/157 58/84/158
f 59/54/159 60/56/160 65/57/161 66/55/162
f 60/80/163 59/79/164 62/20/165 61/24/166
f 61/24/167 62/20/168 64/19/169 63/25/170
f 63/25/170 64/19/169 66/55/162 65/57/161
f 67/30/171 68/75/172 72/111/173 71/77/174
f 68/75/175 67/30/176 70/31/177 69/29/178
f 69/29/178 70/31/177 73/63/179 74/60/180
f 71/62/181 72/61/182 74/60/180 73/63/179
f 76/65/183 75/103/184 77/104/185 78/66/186
f 80/105/187 79/106/188 81/69/189 82/68/190
f 46/108/38 12/76/40 62/78/165 59/113/164
f 12/13/8 47/9/10 64/19/169 62/20/168
f 47/9/191 45/52/192 66/55/162 64/19/169
f 45/52/193 46/53/194 59/54/159 66/55/162
f 52/21/17 13/14/16 68/75/175 69/29/178
f 13/107/39 53/109/36 72/74/173 68/112/172
f 53/58/195 50/59/196 74/60/180 72/61/182
f 50/59/197 52/21/198 69/29/178 74/60/180
f 60/80/199 61/24/200 75/103/201 76/65/202
f 61/24/203 63/25/204 77/104/205 75/103/206
f 63/25/207 65/57/208 78/66/209 77/104/210
f 65/57/211 60/64/212 76/65/213 78/66/214
f 70/31/215 67/30/216 79/106/217 80/105/218
f 67/30/219 71/77/220 81/69/221 79/106/222
f 71/67/223 73/63/224 82/68/225 81/69/226
f 73/63/227 70/31/228 80/105/229 82/68/230
